<?xml version="1.0" encoding="iso-8859-1"?>
<!-- Generator: Adobe Illustrator 19.0.0, SVG Export Plug-In . SVG Version: 6.00 Build 0)  -->
<svg version="1.1" id="Layer_1" xmlns="http://www.w3.org/2000/svg" xmlns:xlink="http://www.w3.org/1999/xlink" x="0px" y="0px"
	 viewBox="0 0 512 512" style="enable-background:new 0 0 512 512;" xml:space="preserve">
<polygon style="fill:#FFBA00;" points="436.421,0 256.002,0 235.104,235.101 256.002,464.956 436.421,464.956 "/>
<rect x="75.579" style="fill:#FDE09C;" width="180.423" height="464.959"/>
<rect x="126.079" y="378.117" style="fill:#FF4F67;" width="110.864" height="31.347"/>
<g>
	<polygon style="fill:#FF8E00;" points="324.103,55.317 256.002,55.317 245.553,70.99 256.002,86.664 324.103,86.664 	"/>
	<polygon style="fill:#FF8E00;" points="385.922,110.019 256.002,110.019 245.553,125.693 256.002,141.366 385.922,141.366 	"/>
	<polygon style="fill:#FF8E00;" points="385.922,164.724 256.002,164.724 245.553,180.397 256.002,196.071 385.922,196.071 	"/>
	<polygon style="fill:#FF8E00;" points="385.922,219.428 256.002,219.428 245.553,235.101 256.002,250.774 385.922,250.774 	"/>
	<polygon style="fill:#FF8E00;" points="385.922,274.131 256.002,274.131 245.553,289.805 256.002,305.478 385.922,305.478 	"/>
</g>
<g>
	<rect x="126.079" y="274.129" style="fill:#FFBA00;" width="129.923" height="31.347"/>
	<rect x="126.079" y="219.429" style="fill:#FFBA00;" width="129.923" height="31.347"/>
	<rect x="126.079" y="164.728" style="fill:#FFBA00;" width="129.923" height="31.347"/>
	<rect x="126.079" y="110.017" style="fill:#FFBA00;" width="129.923" height="31.347"/>
	<rect x="187.895" y="55.317" style="fill:#FFBA00;" width="68.096" height="31.347"/>
</g>
<polygon style="fill:#FF4F67;" points="326.362,393.791 336.811,501.059 364.951,512 364.951,393.791 "/>
<polygon style="fill:#FF6E7A;" points="308.671,393.791 308.671,512 336.811,501.059 336.811,393.791 "/>
<path style="fill:#FF0F4D;" d="M336.811,344.507l-20.898,49.283l20.898,49.283c27.219,0,49.283-22.065,49.283-49.283
	C386.093,366.572,364.029,344.507,336.811,344.507z"/>
<path style="fill:#FF4F67;" d="M287.528,393.791c0,27.219,22.065,49.283,49.283,49.283v-98.566
	C309.592,344.507,287.528,366.572,287.528,393.791z"/>
<g>
</g>
<g>
</g>
<g>
</g>
<g>
</g>
<g>
</g>
<g>
</g>
<g>
</g>
<g>
</g>
<g>
</g>
<g>
</g>
<g>
</g>
<g>
</g>
<g>
</g>
<g>
</g>
<g>
</g>
</svg>
