<svg xmlns="http://www.w3.org/2000/svg" xmlns:xlink="http://www.w3.org/1999/xlink" version="1.1" width="700" height="100" viewBox="0 0 700 100" xml:space="preserve">
<desc>Created with Fabric.js 3.5.0</desc>
<defs>
</defs>
<rect x="0" y="0" width="100%" height="100%" fill="rgba(255,255,255,0)"/>
<g transform="matrix(0.6556 0 0 0.6556 43.4588 49.7961)" id="736434">
<path style="stroke: none; stroke-width: 1; stroke-dasharray: none; stroke-linecap: butt; stroke-dashoffset: 0; stroke-linejoin: miter; stroke-miterlimit: 4; is-custom-font: none; font-file-url: none; fill: rgb(0,0,0); fill-rule: nonzero; opacity: 1;" vector-effect="non-scaling-stroke" transform=" translate(-59.625, -61.445)" d="M 86.28 104.11 c -0.47 -0.19 -0.98 -0.3 -1.52 -0.3 c -0.54 0 -1.05 0.11 -1.52 0.3 c -0.47 0.2 -0.9 0.48 -1.25 0.84 l -0.03 0.02 c -0.2 0.2 -0.39 0.43 -0.54 0.68 c -0.08 0.13 -0.16 0.27 -0.23 0.42 h -6.31 v -5.48 c -0.97 0.45 -1.98 0.79 -3.01 1 c -0.18 0.04 -0.35 0.07 -0.53 0.1 v 6.14 c 0 0.49 0.2 0.93 0.52 1.25 c 0.32 0.32 0.76 0.52 1.25 0.52 h 8.14 c 0.06 0.12 0.13 0.24 0.21 0.36 c 0.14 0.21 0.3 0.41 0.48 0.59 l 0.03 0.03 c 0.36 0.36 0.8 0.66 1.29 0.86 c 0.47 0.19 0.98 0.3 1.52 0.3 c 0.52 0 1.03 -0.1 1.49 -0.29 l 0.03 -0.01 c 0.49 -0.2 0.92 -0.5 1.29 -0.86 c 0.36 -0.36 0.66 -0.8 0.86 -1.29 c 0.19 -0.47 0.3 -0.98 0.3 -1.52 c 0 -0.53 -0.11 -1.04 -0.3 -1.52 c -0.2 -0.49 -0.5 -0.93 -0.86 -1.29 C 87.21 104.61 86.77 104.31 86.28 104.11 L 86.28 104.11 z M 57.43 66.61 h -7.4 l -1.06 3.48 h -6.66 l 7.95 -21.12 h 7.14 l 7.92 21.12 h -6.83 L 57.43 66.61 L 57.43 66.61 z M 56.05 62.03 l -2.31 -7.59 l -2.32 7.59 H 56.05 L 56.05 62.03 z M 67.16 48.96 h 6.55 v 21.12 h -6.55 V 48.96 L 67.16 48.96 z M 62.17 27.31 c -1.08 0.78 -2.08 1.83 -2.95 3.19 c -0.04 0.07 -0.1 0.13 -0.17 0.17 c -0.27 0.17 -0.63 0.09 -0.8 -0.17 c -0.87 -1.36 -1.87 -2.41 -2.95 -3.19 c -1.16 -0.84 -2.41 -1.37 -3.7 -1.63 l -0.02 0 c -1.26 -0.26 -2.55 -0.26 -3.79 -0.04 c -1.31 0.23 -2.58 0.71 -3.72 1.37 c -1.13 0.66 -2.15 1.51 -3 2.49 c -0.82 0.95 -1.48 2.04 -1.91 3.21 l 0 0 c -0.07 0.18 -0.13 0.37 -0.19 0.57 c -0.05 0.18 -0.11 0.38 -0.15 0.58 c -0.05 0.26 -0.27 0.45 -0.55 0.46 c -1.34 0.2 -2.67 0.69 -3.91 1.42 c -1.26 0.75 -2.43 1.77 -3.44 2.99 c -1 1.22 -1.84 2.66 -2.44 4.26 c -0.56 1.5 -0.9 3.15 -0.97 4.9 c -0.01 0.23 -0.01 0.45 -0.01 0.68 c 0 0.21 0.01 0.43 0.01 0.66 c 0.01 0.19 -0.07 0.39 -0.24 0.51 c -0.82 0.59 -1.56 1.2 -2.22 1.83 c -0.67 0.65 -1.26 1.32 -1.77 2.01 c -0.83 1.13 -1.44 2.31 -1.85 3.5 c -0.43 1.24 -0.64 2.51 -0.66 3.76 c -0.01 1.2 0.15 2.39 0.49 3.54 c 0.34 1.17 0.86 2.31 1.53 3.37 l 0 0 c 0.38 0.61 0.81 1.21 1.28 1.77 c 0.48 0.57 1 1.11 1.56 1.62 c 0.14 0.13 0.22 0.34 0.18 0.54 c -0.16 0.76 -0.24 1.51 -0.27 2.25 c -0.02 0.76 0.02 1.51 0.12 2.24 c 0.19 1.34 0.58 2.62 1.13 3.8 c 0.58 1.26 1.34 2.41 2.22 3.42 c 0.85 0.99 1.82 1.85 2.86 2.56 c 1.05 0.72 2.16 1.28 3.3 1.67 c 0.51 0.17 1.03 0.31 1.56 0.41 c 0.5 0.1 1 0.16 1.49 0.18 c 0.27 -0.01 0.52 0.18 0.58 0.46 c 0.26 1.19 0.74 2.31 1.4 3.32 c 0.69 1.06 1.56 2 2.56 2.78 c 1.26 0.98 2.74 1.72 4.3 2.11 c 1.47 0.37 3.02 0.44 4.54 0.12 c 1.36 -0.28 2.68 -0.86 3.9 -1.78 c 1.12 -0.85 2.16 -1.99 3.03 -3.47 c 0.05 -0.09 0.13 -0.16 0.23 -0.21 c 0.28 -0.15 0.63 -0.04 0.78 0.24 c 0.72 1.34 1.6 2.41 2.58 3.22 c 1.06 0.87 2.23 1.46 3.46 1.8 c 1.57 0.43 3.21 0.43 4.8 0.1 c 1.7 -0.35 3.34 -1.09 4.75 -2.11 c 1.11 -0.79 2.09 -1.76 2.87 -2.86 c 0.74 -1.03 1.29 -2.18 1.61 -3.39 c 0.04 -0.23 0.22 -0.43 0.47 -0.47 c 1.47 -0.26 2.92 -0.87 4.25 -1.78 c 1.33 -0.91 2.54 -2.11 3.53 -3.54 c 0.91 -1.32 1.64 -2.84 2.11 -4.5 c 0.44 -1.55 0.65 -3.23 0.58 -5 c -0.02 -0.2 0.07 -0.4 0.25 -0.52 c 0.86 -0.59 1.62 -1.21 2.3 -1.84 c 0.69 -0.66 1.3 -1.34 1.82 -2.05 l 0 0 c 0.8 -1.08 1.39 -2.2 1.8 -3.35 c 0.42 -1.19 0.64 -2.4 0.68 -3.61 c 0.03 -1.17 -0.11 -2.33 -0.41 -3.47 c -0.3 -1.15 -0.77 -2.26 -1.38 -3.31 l -0.02 -0.02 c -0.4 -0.69 -0.87 -1.35 -1.39 -1.99 c -0.52 -0.64 -1.11 -1.24 -1.74 -1.81 c -0.15 -0.13 -0.23 -0.34 -0.19 -0.55 c 0.14 -0.69 0.23 -1.38 0.26 -2.06 c 0.03 -0.69 0.01 -1.37 -0.06 -2.04 c -0.15 -1.39 -0.52 -2.71 -1.06 -3.94 c -0.57 -1.3 -1.33 -2.5 -2.22 -3.55 c -0.86 -1.02 -1.85 -1.91 -2.91 -2.65 c -1.06 -0.74 -2.19 -1.32 -3.34 -1.71 l -0.03 -0.01 c -0.61 -0.21 -1.23 -0.36 -1.84 -0.46 l -0.02 0 c -0.6 -0.1 -1.2 -0.14 -1.79 -0.13 c -0.27 0.02 -0.53 -0.16 -0.6 -0.44 c -0.1 -0.41 -0.23 -0.81 -0.38 -1.2 c -0.16 -0.4 -0.34 -0.79 -0.55 -1.18 c -0.54 -1 -1.25 -1.92 -2.08 -2.71 c -0.85 -0.81 -1.82 -1.5 -2.86 -2.03 c -1.07 -0.54 -2.24 -0.92 -3.44 -1.09 c -1.14 -0.16 -2.31 -0.14 -3.46 0.1 C 64.6 25.94 63.33 26.47 62.17 27.31 L 62.17 27.31 z M 78.52 38.57 c 0.07 -0.22 0.27 -0.39 0.52 -0.41 c 0.42 -0.03 0.85 -0.01 1.28 0.06 c 0.44 0.07 0.88 0.18 1.32 0.33 c 0.83 0.28 1.66 0.71 2.43 1.25 c 0.76 0.53 1.48 1.18 2.1 1.92 l 0.01 0.02 c 0.65 0.77 1.2 1.63 1.61 2.57 c 0.39 0.88 0.65 1.82 0.76 2.81 c 0.07 0.66 0.07 1.35 -0.01 2.05 c -0.07 0.65 -0.22 1.32 -0.45 1.99 l -0.01 0.04 c -0.14 0.42 -0.13 0.86 0 1.25 c 0.14 0.4 0.4 0.76 0.77 1 l 0.03 0.02 c 0.7 0.52 1.32 1.09 1.86 1.69 c 0.56 0.61 1.04 1.27 1.44 1.95 c 0.44 0.75 0.78 1.53 0.99 2.33 c 0.22 0.79 0.32 1.59 0.29 2.38 c -0.02 0.82 -0.18 1.64 -0.47 2.45 c -0.28 0.77 -0.69 1.53 -1.23 2.27 l -0.01 0.01 c -0.49 0.67 -1.11 1.33 -1.84 1.96 c -0.7 0.6 -1.51 1.17 -2.44 1.72 l -0.03 0.02 c -0.37 0.21 -0.64 0.53 -0.8 0.9 c -0.16 0.37 -0.21 0.78 -0.13 1.18 l 0.01 0.08 c 0.19 1.53 0.1 2.99 -0.21 4.32 c -0.34 1.45 -0.93 2.75 -1.7 3.86 c -0.59 0.85 -1.27 1.58 -2 2.16 c -0.75 0.6 -1.56 1.04 -2.39 1.31 l -0.01 0 c -0.3 0.09 -0.63 -0.08 -0.72 -0.38 c -1.13 -3.69 -3.08 -4.88 -6.38 -6.58 l -0.07 -0.04 c -0.46 -0.22 -0.96 -0.24 -1.41 -0.1 c -0.45 0.14 -0.84 0.45 -1.07 0.9 l -0.03 0.06 c -0.22 0.46 -0.24 0.96 -0.1 1.41 c 0.15 0.45 0.47 0.85 0.93 1.09 c 2.76 1.41 4.8 2.48 4.77 5.94 c -0.01 1.03 -0.33 2.03 -0.87 2.93 c -0.57 0.95 -1.39 1.8 -2.34 2.49 c -0.97 0.7 -2.06 1.21 -3.18 1.46 c -1.07 0.25 -2.17 0.26 -3.2 -0.02 c -1.74 -0.48 -2.87 -1.64 -3.63 -3.05 c -0.72 -1.34 -1.12 -2.9 -1.41 -4.32 c -0.02 -0.05 -0.02 -0.11 -0.02 -0.16 c 0 -0.72 -0.56 -1.19 -1.29 -1.4 c -0.32 -0.1 -0.67 -0.14 -1.01 -0.14 c -0.35 0 -0.69 0.05 -1.01 0.14 c -0.72 0.22 -1.28 0.69 -1.28 1.4 c 0 0.05 -0.01 0.09 -0.02 0.14 c -0.56 2.22 -1.37 3.89 -2.32 5.09 c -1.11 1.41 -2.41 2.18 -3.75 2.46 c -0.98 0.2 -1.99 0.15 -2.95 -0.1 c -1.01 -0.27 -1.97 -0.76 -2.81 -1.4 c -0.83 -0.65 -1.52 -1.44 -2 -2.33 c -0.46 -0.85 -0.73 -1.79 -0.73 -2.75 c 0 -3.64 2.2 -4.86 5.11 -6.35 c 0.46 -0.24 0.78 -0.64 0.93 -1.09 c 0.15 -0.46 0.12 -0.97 -0.11 -1.44 c -0.24 -0.46 -0.64 -0.78 -1.09 -0.93 c -0.45 -0.14 -0.95 -0.12 -1.41 0.1 l -0.03 0.01 c -3.43 1.75 -5.48 3.03 -6.71 6.84 c -0.07 0.25 -0.31 0.44 -0.58 0.43 c -0.34 -0.01 -0.68 -0.05 -1.03 -0.12 c -0.34 -0.07 -0.68 -0.16 -1 -0.28 c -0.81 -0.28 -1.62 -0.69 -2.38 -1.21 c -0.75 -0.52 -1.45 -1.14 -2.07 -1.86 c -0.64 -0.74 -1.19 -1.57 -1.61 -2.48 c -0.4 -0.85 -0.68 -1.76 -0.82 -2.71 l 0 -0.02 c -0.1 -0.7 -0.12 -1.43 -0.04 -2.18 c 0.07 -0.7 0.22 -1.43 0.47 -2.15 l 0.01 -0.03 c 0.14 -0.41 0.13 -0.84 0.01 -1.22 l -0.01 -0.02 c -0.13 -0.4 -0.39 -0.75 -0.75 -1 l -0.02 -0.02 c -0.64 -0.48 -1.22 -0.99 -1.73 -1.55 c -0.52 -0.56 -0.98 -1.16 -1.36 -1.78 c -0.46 -0.75 -0.82 -1.55 -1.06 -2.37 c -0.23 -0.8 -0.35 -1.62 -0.34 -2.46 c 0.01 -0.85 0.16 -1.72 0.46 -2.57 c 0.29 -0.81 0.71 -1.62 1.29 -2.41 c 0.49 -0.67 1.09 -1.33 1.81 -1.96 c 0.69 -0.61 1.47 -1.19 2.37 -1.74 c 0.33 -0.2 0.57 -0.48 0.73 -0.8 l 0.01 -0.03 c 0.16 -0.33 0.22 -0.7 0.17 -1.07 c -0.01 -0.04 -0.01 -0.08 -0.01 -0.12 l 0 -0.02 c -0.05 -0.35 -0.08 -0.7 -0.1 -1.04 c -0.02 -0.37 -0.02 -0.74 -0.01 -1.1 c 0.05 -1.31 0.3 -2.54 0.71 -3.65 c 0.44 -1.19 1.06 -2.26 1.8 -3.17 c 0.61 -0.75 1.31 -1.38 2.04 -1.87 c 0.73 -0.49 1.5 -0.84 2.29 -1.04 l 0 0 c 0.3 -0.09 0.63 0.08 0.72 0.38 c 0.62 1.96 1.4 3.19 2.89 4.58 l 0.06 0.05 c 0.37 0.34 0.85 0.5 1.32 0.48 c 0.47 -0.02 0.93 -0.21 1.27 -0.58 l 0.03 -0.04 c 0.34 -0.37 0.5 -0.85 0.48 -1.32 c -0.02 -0.47 -0.22 -0.94 -0.6 -1.3 c -1.2 -1.11 -1.47 -1.8 -1.83 -2.92 c -0.42 -1.29 -0.35 -2.55 0.06 -3.67 c 0.28 -0.77 0.72 -1.49 1.28 -2.12 c 0.55 -0.63 1.22 -1.19 1.96 -1.62 l 0.03 -0.02 c 0.76 -0.44 1.58 -0.76 2.43 -0.92 c 0.81 -0.15 1.64 -0.16 2.45 0.01 c 1.14 0.24 2.26 0.84 3.25 1.88 c 0.87 0.91 1.64 2.17 2.25 3.83 l 0.01 0.02 c 0.21 0.65 0.89 1.03 1.69 1.18 c 0.36 0.07 0.74 0.09 1.11 0.07 l 0.01 0 c 0.38 -0.02 0.74 -0.09 1.08 -0.2 c 0.6 -0.2 1.07 -0.52 1.18 -0.93 v -0.23 c 0 -1.16 0.69 -2.39 1.64 -3.4 c 1.04 -1.1 2.43 -1.97 3.6 -2.21 c 0.74 -0.15 1.49 -0.16 2.22 -0.05 c 0.76 0.12 1.5 0.36 2.2 0.71 L 71.1 30 c 0.71 0.36 1.36 0.82 1.93 1.36 c 0.56 0.54 1.04 1.15 1.4 1.82 c 0.57 1.05 0.83 2.25 0.65 3.52 c -0.16 1.11 -0.2 1.81 -1.13 2.92 l -0.01 0.01 c -0.33 0.39 -0.47 0.88 -0.43 1.36 c 0.04 0.46 0.25 0.91 0.62 1.23 l 0.06 0.05 c 0.39 0.32 0.87 0.45 1.34 0.41 c 0.46 -0.04 0.91 -0.25 1.23 -0.62 l 0.05 -0.07 C 77.77 40.85 78.08 40.01 78.52 38.57 L 78.52 38.57 z M 100.48 87.51 c -0.19 -0.47 -0.3 -0.98 -0.3 -1.52 c 0 -0.54 0.11 -1.05 0.3 -1.52 c 0.2 -0.47 0.48 -0.9 0.84 -1.25 l 0.02 -0.03 c 0.2 -0.2 0.43 -0.39 0.68 -0.54 c 0.13 -0.08 0.27 -0.16 0.42 -0.23 v -6.31 h -7.76 c 0.01 -0.41 0.01 -0.82 -0.01 -1.24 c -0.02 -0.23 0.08 -0.46 0.28 -0.59 c 0.8 -0.55 1.53 -1.12 2.19 -1.71 h 7.06 c 0.49 0 0.93 0.2 1.25 0.52 c 0.32 0.32 0.52 0.76 0.52 1.25 v 8.14 c 0.12 0.06 0.24 0.13 0.36 0.21 c 0.21 0.14 0.41 0.3 0.59 0.48 l 0.03 0.03 c 0.36 0.36 0.66 0.8 0.86 1.29 c 0.19 0.47 0.3 0.98 0.3 1.52 c 0 0.52 -0.1 1.02 -0.29 1.49 l -0.01 0.03 c -0.2 0.49 -0.5 0.92 -0.86 1.29 c -0.36 0.36 -0.8 0.66 -1.29 0.86 c -0.47 0.19 -0.98 0.3 -1.52 0.3 c -0.53 0 -1.04 -0.11 -1.52 -0.3 c -0.49 -0.2 -0.93 -0.5 -1.29 -0.86 C 100.98 88.44 100.68 88 100.48 87.51 L 100.48 87.51 z M 111.72 67.26 h -10.55 c 0.18 -0.39 0.34 -0.78 0.48 -1.18 c 0.28 -0.78 0.48 -1.57 0.6 -2.36 h 9.47 c 0.07 -0.13 0.14 -0.26 0.22 -0.39 c 0.15 -0.24 0.33 -0.46 0.52 -0.65 c 0.37 -0.37 0.8 -0.66 1.29 -0.86 c 0.47 -0.19 0.98 -0.3 1.52 -0.3 c 0.52 0 1.02 0.1 1.49 0.29 l 0.03 0.01 c 0.49 0.2 0.92 0.5 1.29 0.86 c 0.36 0.36 0.66 0.8 0.86 1.29 c 0.19 0.47 0.3 0.98 0.3 1.52 c 0 0.53 -0.11 1.04 -0.3 1.52 c -0.2 0.49 -0.5 0.93 -0.86 1.29 c -0.36 0.36 -0.8 0.66 -1.29 0.86 c -0.47 0.19 -0.98 0.3 -1.52 0.3 c -0.52 0 -1.02 -0.1 -1.49 -0.29 l -0.03 -0.01 c -0.49 -0.2 -0.92 -0.5 -1.29 -0.86 c -0.19 -0.19 -0.36 -0.4 -0.51 -0.63 l -0.02 -0.03 C 111.86 67.52 111.79 67.39 111.72 67.26 L 111.72 67.26 z M 115.08 57.58 h -13.27 c -0.34 -1.12 -0.82 -2.21 -1.42 -3.25 l -0.02 -0.03 c -0.05 -0.09 -0.1 -0.17 -0.15 -0.26 h 13.1 V 42.49 c -0.1 -0.06 -0.2 -0.12 -0.3 -0.19 c -0.2 -0.14 -0.38 -0.29 -0.55 -0.46 c -0.36 -0.36 -0.66 -0.8 -0.86 -1.29 c -0.19 -0.47 -0.3 -0.98 -0.3 -1.52 c 0 -0.53 0.11 -1.05 0.3 -1.52 c 0.2 -0.49 0.5 -0.92 0.86 -1.29 c 0.36 -0.36 0.8 -0.66 1.29 -0.86 c 0.47 -0.19 0.98 -0.3 1.52 -0.3 c 0.53 0 1.04 0.11 1.52 0.3 c 0.49 0.2 0.93 0.5 1.29 0.86 c 0.36 0.36 0.66 0.8 0.86 1.29 c 0.19 0.47 0.3 0.98 0.3 1.52 c 0 0.52 -0.1 1.02 -0.29 1.49 l -0.01 0.03 c -0.2 0.49 -0.5 0.92 -0.86 1.29 c -0.22 0.22 -0.48 0.42 -0.75 0.59 c -0.15 0.09 -0.32 0.18 -0.48 0.25 v 13.12 c 0 0.49 -0.2 0.93 -0.52 1.25 C 116.01 57.38 115.57 57.58 115.08 57.58 L 115.08 57.58 z M 101.21 49.04 h -4.52 c 0.12 -0.66 0.19 -1.32 0.22 -1.98 c 0.02 -0.53 0.02 -1.05 -0.01 -1.56 h 2.54 v -5.22 c -0.14 -0.07 -0.27 -0.14 -0.4 -0.23 c -0.24 -0.15 -0.46 -0.33 -0.67 -0.54 l 0 0 c -0.36 -0.36 -0.66 -0.8 -0.86 -1.29 c -0.19 -0.47 -0.3 -0.98 -0.3 -1.51 c 0 -0.53 0.11 -1.04 0.3 -1.52 c 0.2 -0.47 0.48 -0.9 0.83 -1.26 l 0.03 -0.03 c 0.36 -0.36 0.8 -0.66 1.29 -0.86 c 0.47 -0.19 0.98 -0.3 1.52 -0.3 c 0.54 0 1.05 0.11 1.52 0.3 c 0.47 0.2 0.9 0.48 1.26 0.84 l 0.03 0.02 c 0.36 0.36 0.65 0.78 0.85 1.26 l 0.01 0.03 c 0.19 0.47 0.3 0.98 0.3 1.52 c 0 0.53 -0.11 1.05 -0.3 1.52 c -0.2 0.47 -0.48 0.9 -0.83 1.26 l -0.03 0.03 c -0.19 0.19 -0.4 0.36 -0.64 0.52 c -0.12 0.08 -0.24 0.15 -0.37 0.21 v 7.02 c 0 0.49 -0.2 0.93 -0.52 1.25 C 102.14 48.84 101.69 49.04 101.21 49.04 L 101.21 49.04 z M 31.13 18.77 c 0.47 0.19 0.98 0.3 1.52 0.3 c 0.54 0 1.05 -0.11 1.52 -0.3 c 0.47 -0.2 0.9 -0.48 1.25 -0.84 l 0.03 -0.02 c 0.2 -0.2 0.39 -0.43 0.54 -0.68 c 0.08 -0.13 0.16 -0.27 0.23 -0.42 h 6.31 v 5.45 c 1.11 -0.59 2.31 -1.02 3.54 -1.27 v -5.95 c 0 -0.49 -0.2 -0.93 -0.52 -1.25 c -0.32 -0.32 -0.76 -0.52 -1.25 -0.52 h -8.14 c -0.06 -0.12 -0.13 -0.24 -0.21 -0.36 c -0.14 -0.21 -0.3 -0.41 -0.48 -0.59 l -0.03 -0.03 c -0.36 -0.36 -0.8 -0.66 -1.29 -0.86 c -0.47 -0.19 -0.98 -0.3 -1.52 -0.3 c -0.52 0 -1.03 0.1 -1.49 0.29 l -0.03 0.01 c -0.49 0.2 -0.92 0.5 -1.29 0.86 c -0.36 0.36 -0.66 0.8 -0.86 1.29 c -0.19 0.47 -0.3 0.98 -0.3 1.52 c 0 0.53 0.11 1.04 0.3 1.52 c 0.2 0.49 0.5 0.93 0.86 1.29 C 30.21 18.27 30.64 18.57 31.13 18.77 L 31.13 18.77 z M 51.39 7.53 v 13.66 c 1.18 0.34 2.33 0.88 3.41 1.66 l 0.12 0.09 c 0 -0.03 0.01 -0.06 0.01 -0.09 V 7.53 c 0.13 -0.07 0.26 -0.14 0.39 -0.22 c 0.24 -0.15 0.46 -0.33 0.65 -0.52 c 0.36 -0.37 0.66 -0.8 0.86 -1.29 c 0.19 -0.47 0.3 -0.98 0.3 -1.52 c 0 -0.52 -0.1 -1.02 -0.29 -1.49 l -0.01 -0.03 c -0.2 -0.49 -0.5 -0.92 -0.86 -1.29 c -0.36 -0.36 -0.8 -0.66 -1.29 -0.86 c -0.47 -0.19 -0.98 -0.3 -1.52 -0.3 c -0.53 0 -1.04 0.11 -1.52 0.3 c -0.49 0.2 -0.93 0.5 -1.29 0.86 c -0.36 0.36 -0.66 0.8 -0.86 1.29 c -0.19 0.47 -0.3 0.98 -0.3 1.52 c 0 0.52 0.1 1.02 0.29 1.49 l 0.01 0.03 c 0.2 0.49 0.5 0.92 0.86 1.29 c 0.19 0.19 0.4 0.36 0.63 0.51 L 51 7.31 C 51.13 7.39 51.25 7.46 51.39 7.53 L 51.39 7.53 z M 61.06 4.17 v 19.98 c 0.48 -0.49 0.99 -0.92 1.51 -1.3 c 0.65 -0.47 1.33 -0.86 2.03 -1.16 V 5.93 h 11.55 c 0.06 0.1 0.12 0.2 0.19 0.3 c 0.14 0.2 0.29 0.38 0.46 0.55 c 0.36 0.36 0.8 0.66 1.29 0.86 c 0.47 0.19 0.98 0.3 1.52 0.3 c 0.53 0 1.05 -0.11 1.52 -0.3 c 0.49 -0.2 0.93 -0.5 1.29 -0.86 c 0.36 -0.36 0.66 -0.8 0.86 -1.29 c 0.19 -0.47 0.3 -0.98 0.3 -1.52 c 0 -0.53 -0.11 -1.04 -0.3 -1.52 c -0.2 -0.49 -0.5 -0.93 -0.86 -1.29 C 82.04 0.8 81.6 0.5 81.11 0.3 C 80.64 0.11 80.13 0 79.6 0 c -0.52 0 -1.02 0.1 -1.49 0.29 L 78.08 0.3 c -0.49 0.2 -0.92 0.5 -1.29 0.86 c -0.22 0.22 -0.42 0.48 -0.59 0.75 c -0.09 0.15 -0.18 0.32 -0.25 0.48 H 62.83 c -0.49 0 -0.93 0.2 -1.25 0.52 C 61.26 3.24 61.06 3.68 61.06 4.17 L 61.06 4.17 z M 69.6 18.04 v 2.74 c 0.36 0.02 0.73 0.05 1.09 0.11 c 0.84 0.12 1.66 0.33 2.45 0.62 v -1.69 h 5.22 c 0.07 0.14 0.14 0.27 0.23 0.4 c 0.15 0.24 0.33 0.46 0.54 0.67 l 0 0 c 0.36 0.36 0.8 0.66 1.29 0.86 c 0.47 0.19 0.98 0.3 1.51 0.3 s 1.04 -0.11 1.52 -0.3 c 0.47 -0.2 0.9 -0.48 1.26 -0.83 l 0.03 -0.03 c 0.36 -0.36 0.66 -0.8 0.86 -1.29 c 0.19 -0.47 0.3 -0.98 0.3 -1.52 c 0 -0.54 -0.11 -1.05 -0.3 -1.52 c -0.2 -0.47 -0.48 -0.9 -0.84 -1.26 l -0.02 -0.03 c -0.36 -0.36 -0.78 -0.65 -1.26 -0.85 l -0.03 -0.01 c -0.47 -0.19 -0.98 -0.3 -1.52 -0.3 c -0.53 0 -1.05 0.11 -1.52 0.3 c -0.47 0.2 -0.9 0.48 -1.26 0.83 l -0.03 0.03 c -0.19 0.19 -0.36 0.4 -0.52 0.64 c -0.08 0.12 -0.15 0.24 -0.21 0.37 h -7.02 c -0.49 0 -0.93 0.2 -1.25 0.52 C 69.8 17.11 69.6 17.55 69.6 18.04 L 69.6 18.04 z M 18.77 35.2 c 0.19 0.47 0.3 0.98 0.3 1.52 c 0 0.54 -0.11 1.05 -0.3 1.52 c -0.2 0.47 -0.48 0.9 -0.84 1.25 l -0.02 0.03 c -0.2 0.2 -0.43 0.39 -0.68 0.54 c -0.13 0.08 -0.27 0.16 -0.42 0.23 v 6.31 h 6.55 l 0 0.31 c 0 0.24 0.01 0.49 0.02 0.75 c 0.02 0.22 -0.08 0.44 -0.27 0.58 c -0.86 0.61 -1.63 1.25 -2.33 1.9 h -5.72 c -0.49 0 -0.93 -0.2 -1.25 -0.52 c -0.32 -0.32 -0.52 -0.76 -0.52 -1.25 v -8.14 c -0.12 -0.06 -0.24 -0.13 -0.36 -0.21 c -0.21 -0.14 -0.41 -0.3 -0.59 -0.48 l -0.03 -0.03 c -0.36 -0.36 -0.66 -0.8 -0.86 -1.29 c -0.19 -0.47 -0.3 -0.98 -0.3 -1.52 c 0 -0.52 0.1 -1.02 0.29 -1.49 l 0.01 -0.03 c 0.2 -0.49 0.5 -0.92 0.86 -1.29 c 0.36 -0.36 0.8 -0.66 1.29 -0.86 c 0.47 -0.19 0.98 -0.3 1.52 -0.3 c 0.53 0 1.04 0.11 1.52 0.3 c 0.49 0.2 0.93 0.5 1.29 0.86 C 18.27 34.27 18.57 34.71 18.77 35.2 L 18.77 35.2 z M 7.53 55.45 h 9.4 c -0.16 0.36 -0.3 0.73 -0.43 1.09 c -0.28 0.81 -0.48 1.62 -0.6 2.44 H 7.53 c -0.07 0.13 -0.14 0.26 -0.22 0.39 c -0.15 0.24 -0.33 0.46 -0.52 0.65 c -0.37 0.37 -0.8 0.66 -1.29 0.86 c -0.47 0.19 -0.98 0.3 -1.52 0.3 c -0.52 0 -1.02 -0.1 -1.49 -0.29 l -0.03 -0.01 c -0.49 -0.2 -0.92 -0.5 -1.29 -0.86 c -0.36 -0.36 -0.66 -0.8 -0.86 -1.29 c -0.19 -0.47 -0.3 -0.98 -0.3 -1.52 c 0 -0.53 0.11 -1.04 0.3 -1.52 c 0.2 -0.49 0.5 -0.93 0.86 -1.29 c 0.36 -0.36 0.8 -0.66 1.29 -0.86 c 0.47 -0.19 0.98 -0.3 1.52 -0.3 c 0.52 0 1.02 0.1 1.49 0.29 l 0.03 0.01 c 0.49 0.2 0.92 0.5 1.29 0.86 c 0.19 0.19 0.36 0.4 0.51 0.63 l 0.02 0.03 C 7.39 55.19 7.46 55.32 7.53 55.45 L 7.53 55.45 z M 4.17 65.13 H 16.4 c 0.38 1.21 0.93 2.38 1.63 3.49 l 0 0.01 l 0.02 0.04 H 5.93 v 11.55 c 0.1 0.06 0.2 0.12 0.3 0.19 c 0.2 0.14 0.38 0.29 0.55 0.46 c 0.36 0.36 0.66 0.8 0.86 1.29 c 0.19 0.47 0.3 0.98 0.3 1.52 c 0 0.53 -0.11 1.05 -0.3 1.52 c -0.2 0.49 -0.5 0.92 -0.86 1.29 c -0.36 0.36 -0.8 0.66 -1.29 0.86 c -0.47 0.19 -0.98 0.3 -1.52 0.3 c -0.53 0 -1.04 -0.11 -1.52 -0.3 c -0.49 -0.2 -0.93 -0.5 -1.29 -0.86 C 0.8 86.1 0.5 85.66 0.3 85.18 C 0.11 84.71 0 84.2 0 83.66 c 0 -0.52 0.1 -1.02 0.29 -1.49 l 0.01 -0.03 c 0.2 -0.49 0.5 -0.92 0.86 -1.29 c 0.22 -0.22 0.48 -0.42 0.75 -0.59 c 0.15 -0.09 0.32 -0.18 0.48 -0.25 V 66.89 c 0 -0.49 0.2 -0.93 0.52 -1.25 C 3.24 65.33 3.68 65.13 4.17 65.13 L 4.17 65.13 z M 18.04 73.67 h 3.3 c -0.11 0.66 -0.17 1.31 -0.19 1.95 c -0.02 0.54 -0.01 1.07 0.03 1.59 h -1.37 v 5.22 c 0.14 0.07 0.27 0.14 0.4 0.23 c 0.24 0.15 0.46 0.33 0.67 0.54 l 0 0 c 0.36 0.36 0.66 0.8 0.86 1.29 c 0.19 0.47 0.3 0.98 0.3 1.52 s -0.11 1.04 -0.3 1.52 c -0.2 0.47 -0.48 0.9 -0.83 1.26 l -0.03 0.03 c -0.36 0.36 -0.8 0.66 -1.29 0.86 c -0.47 0.19 -0.98 0.3 -1.52 0.3 c -0.54 0 -1.05 -0.11 -1.52 -0.3 c -0.47 -0.2 -0.9 -0.48 -1.26 -0.84 l -0.03 -0.02 c -0.36 -0.36 -0.65 -0.78 -0.85 -1.26 l -0.01 -0.03 c -0.19 -0.47 -0.3 -0.98 -0.3 -1.52 c 0 -0.53 0.11 -1.05 0.3 -1.52 c 0.2 -0.47 0.48 -0.9 0.83 -1.26 l 0.03 -0.03 c 0.19 -0.19 0.4 -0.36 0.64 -0.52 c 0.12 -0.08 0.24 -0.15 0.37 -0.21 v -7.02 c 0 -0.49 0.2 -0.93 0.52 -1.25 C 17.11 73.86 17.55 73.67 18.04 73.67 L 18.04 73.67 z M 66.03 115.35 v -13.99 c -1.25 -0.39 -2.43 -1.02 -3.51 -1.91 l -0.02 -0.02 v 15.93 c -0.13 0.07 -0.26 0.14 -0.39 0.22 c -0.24 0.15 -0.46 0.33 -0.65 0.52 c -0.36 0.37 -0.66 0.8 -0.86 1.29 c -0.19 0.47 -0.3 0.98 -0.3 1.52 c 0 0.52 0.1 1.02 0.29 1.49 l 0.01 0.03 c 0.2 0.49 0.5 0.92 0.86 1.29 c 0.36 0.36 0.8 0.66 1.29 0.86 c 0.47 0.19 0.98 0.3 1.52 0.3 c 0.53 0 1.04 -0.11 1.52 -0.3 c 0.49 -0.2 0.93 -0.5 1.29 -0.86 c 0.36 -0.36 0.66 -0.8 0.86 -1.29 c 0.19 -0.47 0.3 -0.98 0.3 -1.52 c 0 -0.52 -0.1 -1.02 -0.29 -1.49 l -0.01 -0.03 c -0.2 -0.49 -0.5 -0.92 -0.86 -1.29 c -0.19 -0.19 -0.4 -0.36 -0.63 -0.51 l -0.03 -0.02 C 66.29 115.49 66.16 115.42 66.03 115.35 L 66.03 115.35 z M 56.35 118.71 V 98.55 c -0.42 0.43 -0.86 0.81 -1.32 1.16 c -0.71 0.54 -1.45 0.97 -2.22 1.31 v 15.94 H 41.26 c -0.06 -0.1 -0.12 -0.2 -0.19 -0.3 c -0.14 -0.2 -0.29 -0.38 -0.46 -0.55 c -0.36 -0.36 -0.8 -0.66 -1.29 -0.86 c -0.47 -0.19 -0.98 -0.3 -1.52 -0.3 c -0.53 0 -1.05 0.11 -1.52 0.3 c -0.49 0.2 -0.92 0.5 -1.29 0.86 c -0.36 0.36 -0.66 0.8 -0.86 1.29 c -0.19 0.47 -0.3 0.98 -0.3 1.52 c 0 0.53 0.11 1.04 0.3 1.52 c 0.2 0.49 0.5 0.93 0.86 1.29 c 0.36 0.36 0.8 0.66 1.29 0.86 c 0.47 0.19 0.98 0.3 1.52 0.3 c 0.52 0 1.02 -0.1 1.49 -0.29 l 0.03 -0.01 c 0.49 -0.2 0.92 -0.5 1.29 -0.86 c 0.22 -0.22 0.42 -0.48 0.59 -0.75 c 0.09 -0.15 0.18 -0.32 0.25 -0.48 h 13.12 c 0.49 0 0.93 -0.2 1.25 -0.52 C 56.15 119.64 56.35 119.2 56.35 118.71 L 56.35 118.71 z M 47.81 104.84 v -2.91 c -0.78 -0.04 -1.56 -0.16 -2.32 -0.35 c -0.41 -0.1 -0.82 -0.23 -1.22 -0.37 v 1.87 h -5.22 c -0.07 -0.14 -0.14 -0.27 -0.23 -0.4 c -0.15 -0.24 -0.33 -0.46 -0.54 -0.67 l 0 0 c -0.36 -0.36 -0.8 -0.66 -1.29 -0.86 c -0.47 -0.19 -0.98 -0.3 -1.51 -0.3 c -0.53 0 -1.04 0.11 -1.52 0.3 c -0.47 0.2 -0.9 0.48 -1.26 0.83 L 32.67 102 c -0.36 0.36 -0.66 0.8 -0.86 1.29 c -0.19 0.47 -0.3 0.98 -0.3 1.52 c 0 0.54 0.11 1.05 0.3 1.52 c 0.2 0.47 0.48 0.9 0.84 1.26 l 0.02 0.03 c 0.36 0.36 0.78 0.65 1.26 0.85 l 0.03 0.01 c 0.47 0.19 0.98 0.3 1.52 0.3 c 0.53 0 1.04 -0.11 1.52 -0.3 c 0.47 -0.2 0.9 -0.48 1.26 -0.83 l 0.03 -0.03 c 0.19 -0.19 0.36 -0.4 0.52 -0.64 c 0.08 -0.12 0.15 -0.24 0.21 -0.37 h 7.02 c 0.49 0 0.93 -0.2 1.25 -0.52 C 47.61 105.77 47.81 105.33 47.81 104.84 L 47.81 104.84 z" stroke-linecap="round"/>
</g>
<g transform="matrix(0.9588 0 0 0.9782 394.6833 49.6126)" id="584613">
<g style="" vector-effect="non-scaling-stroke">
		<g transform="matrix(1 0 0 1 -272.7054 0.0246)">
<path style="stroke: rgb(0,0,0); stroke-width: 0.9449; stroke-dasharray: none; stroke-linecap: round; stroke-dashoffset: 0; stroke-linejoin: miter; stroke-miterlimit: 4; is-custom-font: none; font-file-url: none; fill: none; fill-rule: evenodd; opacity: 1;" transform=" translate(-42.4315, -47.4615)" d="M 10.742 87.891 L 61.67 7.032 L 65.82 7.032 L 14.893 87.891 L 10.742 87.891 Z M 2.441 87.891 L 53.369 7.032 L 57.52 7.032 L 6.592 87.891 L 2.441 87.891 Z M 27.393 87.891 L 78.271 7.032 L 82.422 7.032 L 31.543 87.891 L 27.393 87.891 Z M 19.092 87.891 L 70.02 7.032 L 74.121 7.032 L 23.242 87.891 L 19.092 87.891 Z M 4.15 7.032 L 27.539 44.19 L 25.439 47.51 L 0 7.032 L 4.15 7.032 Z M 80.713 87.891 L 57.324 50.782 L 59.375 47.461 L 84.863 87.891 L 80.713 87.891 Z M 12.402 7.032 L 31.689 37.647 L 29.59 40.918 L 8.301 7.032 L 12.402 7.032 Z M 72.412 87.891 L 53.223 57.373 L 55.273 54.053 L 76.563 87.891 L 72.412 87.891 Z M 20.752 7.032 L 35.84 31.006 L 33.789 34.278 L 16.602 7.032 L 20.752 7.032 Z M 64.063 87.891 L 49.023 64.014 L 51.074 60.694 L 68.213 87.891 L 64.063 87.891 Z M 29.053 7.032 L 39.99 24.414 L 37.939 27.735 L 24.902 7.032 L 29.053 7.032 Z M 55.762 87.891 L 44.873 70.606 L 46.924 67.286 L 59.912 87.891 L 55.762 87.891 Z" stroke-linecap="round"/>
</g>
		<g transform="matrix(1 0 0 1 -205.274 0.0241)" id="1">
<path style="stroke: rgb(0,0,0); stroke-width: 0.9449; stroke-dasharray: none; stroke-linecap: round; stroke-dashoffset: 0; stroke-linejoin: miter; stroke-miterlimit: 4; is-custom-font: none; font-file-url: none; fill: none; fill-rule: evenodd; opacity: 1;" transform=" translate(-109.863, -47.461)" d="M 129.199 42.188 L 90.527 42.188 L 90.527 38.672 L 129.199 38.672 L 129.199 42.188 Z M 129.199 49.219 L 90.527 49.219 L 90.527 45.704 L 129.199 45.704 L 129.199 49.219 Z M 129.199 56.25 L 90.527 56.25 L 90.527 52.735 L 129.199 52.735 L 129.199 56.25 Z" stroke-linecap="round"/>
</g>
		<g transform="matrix(1 0 0 1 -150.7329 0.0246)" id="2">
<path style="stroke: rgb(0,0,0); stroke-width: 0.9449; stroke-dasharray: none; stroke-linecap: round; stroke-dashoffset: 0; stroke-linejoin: miter; stroke-miterlimit: 4; is-custom-font: none; font-file-url: none; fill: none; fill-rule: evenodd; opacity: 1;" transform=" translate(-164.404, -47.4615)" d="M 159.131 87.891 L 159.131 7.032 L 162.646 7.032 L 162.646 70.313 L 190.771 70.313 L 190.771 73.829 L 162.646 73.829 L 162.646 77.344 L 190.771 77.344 L 190.771 80.86 L 162.646 80.86 L 162.646 84.375 L 190.771 84.375 L 190.771 87.891 L 159.131 87.891 Z M 138.037 87.891 L 138.037 7.032 L 141.553 7.032 L 141.553 87.891 L 138.037 87.891 Z M 152.1 87.891 L 152.1 7.032 L 155.615 7.032 L 155.615 87.891 L 152.1 87.891 Z M 145.068 87.891 L 145.068 7.032 L 148.584 7.032 L 148.584 87.891 L 145.068 87.891 Z" stroke-linecap="round"/>
</g>
		<g transform="matrix(1 0 0 1 -80.2737 5.2242)" id="3">
<path style="stroke: rgb(0,0,0); stroke-width: 0.9449; stroke-dasharray: none; stroke-linecap: round; stroke-dashoffset: 0; stroke-linejoin: miter; stroke-miterlimit: 4; is-custom-font: none; font-file-url: none; fill: none; fill-rule: evenodd; opacity: 1;" transform=" translate(-234.8633, -52.6612)" d="M 273.047 53.223 L 273.047 87.891 L 269.531 87.891 L 269.531 53.223 A 36.571 36.571 0 0 0 267.939 42.279 A 32.27 32.27 0 0 0 264.893 35.425 Q 260.254 27.588 252.246 23.316 A 36.646 36.646 0 0 0 236.962 19.119 A 43.918 43.918 0 0 0 234.375 19.043 A 34.035 34.035 0 0 0 217.041 23.584 Q 209.18 28.125 204.688 35.865 A 33.017 33.017 0 0 0 200.195 52.735 A 33.615 33.615 0 0 0 202.124 64.136 A 32.229 32.229 0 0 0 205.445 70.909 A 28.472 28.472 0 0 0 207.397 73.56 A 36.103 36.103 0 0 0 215.112 80.518 A 34.716 34.716 0 0 0 224.536 84.961 A 35.639 35.639 0 0 0 234.814 86.475 A 27.7 27.7 0 0 0 245.752 84.278 L 245.752 87.891 Q 240.332 89.795 234.619 89.795 A 40.183 40.183 0 0 1 223.12 88.135 Q 217.529 86.475 212.769 83.228 Q 208.008 79.981 204.395 75.562 Q 200.781 71.143 198.73 65.235 A 37.834 37.834 0 0 1 196.68 52.786 A 42.476 42.476 0 0 1 196.68 52.735 A 37.166 37.166 0 0 1 199.536 38.306 A 36.872 36.872 0 0 1 206.737 27.074 A 35.403 35.403 0 0 1 207.349 26.441 A 35.76 35.76 0 0 1 217.207 19.455 A 41.854 41.854 0 0 1 219.36 18.482 Q 226.416 15.528 234.375 15.528 A 42.623 42.623 0 0 1 247.755 17.603 A 40.141 40.141 0 0 1 249.609 18.262 A 38.269 38.269 0 0 1 259.204 23.558 A 35.033 35.033 0 0 1 261.914 25.855 A 33.853 33.853 0 0 1 269.264 36.005 A 39.697 39.697 0 0 1 270.068 37.793 Q 273.047 44.873 273.047 53.223 Z M 266.016 53.223 L 266.016 87.891 L 262.5 87.891 L 262.5 53.223 A 29.957 29.957 0 0 0 261.397 44.959 A 25.52 25.52 0 0 0 258.813 38.941 Q 255.127 32.715 248.73 29.395 A 29.744 29.744 0 0 0 237.365 26.196 A 36.148 36.148 0 0 0 234.375 26.075 Q 226.807 26.075 220.557 29.664 A 26.152 26.152 0 0 0 210.767 39.356 Q 207.227 45.459 207.227 52.735 Q 207.227 58.985 209.521 64.136 A 25.097 25.097 0 0 0 212.908 69.734 A 21.823 21.823 0 0 0 215.698 72.608 Q 219.58 75.928 224.536 77.759 A 29.699 29.699 0 0 0 234.912 79.59 A 27.138 27.138 0 0 0 245.752 77.295 L 245.752 80.86 A 32.688 32.688 0 0 1 238.7 82.688 A 28.26 28.26 0 0 1 234.814 82.959 A 32.253 32.253 0 0 1 219.287 79.151 A 29.318 29.318 0 0 1 207.959 68.36 A 29.358 29.358 0 0 1 203.715 53.273 A 34.855 34.855 0 0 1 203.711 52.735 A 29.627 29.627 0 0 1 206.079 41.016 A 30.24 30.24 0 0 1 212 31.909 A 29.001 29.001 0 0 1 212.5 31.397 A 29.542 29.542 0 0 1 220.82 25.596 A 34.373 34.373 0 0 1 222.266 24.952 A 31.03 31.03 0 0 1 234.375 22.559 Q 243.311 22.559 250.513 26.368 A 28.311 28.311 0 0 1 261.865 37.207 A 30.047 30.047 0 0 1 265.893 50.192 A 36.861 36.861 0 0 1 266.016 53.223 Z M 258.984 53.223 L 258.984 87.891 L 255.469 87.891 L 255.469 53.223 A 23.343 23.343 0 0 0 254.638 46.834 A 17.567 17.567 0 0 0 249.561 38.55 A 20.308 20.308 0 0 0 238.539 33.405 A 27.994 27.994 0 0 0 234.375 33.106 A 21.242 21.242 0 0 0 226.716 34.446 A 19.198 19.198 0 0 0 220.02 38.819 A 18.829 18.829 0 0 0 214.259 52.479 A 23.191 23.191 0 0 0 214.258 52.735 A 24.575 24.575 0 0 0 214.747 57.737 A 19.789 19.789 0 0 0 215.991 61.67 A 18.086 18.086 0 0 0 218.184 65.432 A 15.016 15.016 0 0 0 220.703 68.018 Q 223.682 70.411 227.368 71.656 Q 231.055 72.901 235.156 72.901 A 22.849 22.849 0 0 0 245.752 70.313 L 245.752 74.024 A 27.878 27.878 0 0 1 236.951 76.156 A 26.193 26.193 0 0 1 235.107 76.221 Q 230.273 76.221 225.928 74.732 A 24.248 24.248 0 0 1 218.164 70.386 A 19.016 19.016 0 0 1 213.834 65.14 A 23.334 23.334 0 0 1 212.744 62.964 A 23.788 23.788 0 0 1 210.919 56.001 A 29.507 29.507 0 0 1 210.742 52.735 A 22.205 22.205 0 0 1 217.343 36.565 A 26.804 26.804 0 0 1 217.554 36.353 A 22.886 22.886 0 0 1 234.063 29.592 A 29.416 29.416 0 0 1 234.375 29.59 A 29.651 29.651 0 0 1 241.773 30.482 A 24.933 24.933 0 0 1 246.973 32.447 Q 252.539 35.303 255.762 40.723 A 22.981 22.981 0 0 1 258.819 50.1 A 28.833 28.833 0 0 1 258.984 53.223 Z M 248.438 87.891 L 248.438 53.223 A 16.238 16.238 0 0 0 247.982 49.261 A 11.009 11.009 0 0 0 244.58 43.555 Q 240.723 40.137 234.375 40.137 A 12.844 12.844 0 0 0 225.146 43.848 A 12.607 12.607 0 0 0 222.224 47.995 A 11.963 11.963 0 0 0 221.289 52.735 A 18.868 18.868 0 0 0 221.484 55.512 A 14.349 14.349 0 0 0 222.07 57.984 A 13.059 13.059 0 0 0 222.959 60.047 A 9.879 9.879 0 0 0 224.194 61.841 A 11.367 11.367 0 0 0 227.393 64.38 A 14.703 14.703 0 0 0 231.274 65.821 A 19.568 19.568 0 0 0 234.43 66.231 A 22.925 22.925 0 0 0 235.596 66.26 Q 241.162 66.26 245.752 63.526 L 245.752 67.041 Q 241.016 69.532 235.547 69.532 A 23.112 23.112 0 0 1 230.507 68.996 A 20.721 20.721 0 0 1 228.931 68.58 A 17.963 17.963 0 0 1 223.291 65.699 A 12.378 12.378 0 0 1 220.239 62.286 A 15.8 15.8 0 0 1 219.263 60.425 A 16.945 16.945 0 0 1 218.001 55.977 A 22.273 22.273 0 0 1 217.773 52.735 A 15.76 15.76 0 0 1 219.532 45.284 A 16.191 16.191 0 0 1 222.51 41.309 Q 227.246 36.622 234.375 36.622 A 22.788 22.788 0 0 1 239.954 37.269 A 16.371 16.371 0 0 1 247.095 41.04 A 14.522 14.522 0 0 1 251.64 49.496 A 21.21 21.21 0 0 1 251.953 53.223 L 251.953 87.891 L 248.438 87.891 Z" stroke-linecap="round"/>
</g>
		<g transform="matrix(1 0 0 1 -1.3915 5.2981)" id="4">
<path style="stroke: rgb(0,0,0); stroke-width: 0.9449; stroke-dasharray: none; stroke-linecap: round; stroke-dashoffset: 0; stroke-linejoin: miter; stroke-miterlimit: 4; is-custom-font: none; font-file-url: none; fill: none; fill-rule: evenodd; opacity: 1;" transform=" translate(-313.7454, -52.735)" d="M 336.816 52.344 L 336.719 52.295 A 17.538 17.538 0 0 0 342.233 39.57 A 21.348 21.348 0 0 0 342.236 39.209 A 17.281 17.281 0 0 0 336.966 26.664 A 22.409 22.409 0 0 0 336.792 26.49 A 18.557 18.557 0 0 0 330.449 22.28 A 17.819 17.819 0 0 0 323.926 21.094 L 285.254 21.094 L 285.254 87.891 L 281.738 87.891 L 281.738 17.579 L 323.926 17.579 Q 329.688 17.579 334.741 20.533 Q 339.795 23.487 342.773 28.492 A 20.606 20.606 0 0 1 345.752 39.209 A 24.331 24.331 0 0 1 344.767 46.262 A 20.385 20.385 0 0 1 341.553 52.637 A 21.357 21.357 0 0 1 345.752 65.43 A 25.072 25.072 0 0 1 344.923 71.998 A 20.858 20.858 0 0 1 342.725 77.222 A 20.789 20.789 0 0 1 337.958 82.823 A 19.275 19.275 0 0 1 334.79 84.913 A 22.649 22.649 0 0 1 325.033 87.478 A 26.77 26.77 0 0 1 323.926 87.5 L 301.709 87.5 L 301.709 83.985 L 323.926 83.985 Q 331.445 83.985 336.841 78.638 A 17.822 17.822 0 0 0 342.235 65.675 A 22.739 22.739 0 0 0 342.236 65.43 Q 342.236 61.817 340.674 58.301 Q 339.111 54.786 336.768 52.393 Q 336.768 52.344 336.816 52.344 Z M 323.926 76.954 L 301.709 76.954 L 301.709 80.469 L 323.926 80.469 A 14.3 14.3 0 0 0 334.282 76.215 A 17.672 17.672 0 0 0 334.351 76.148 A 14.434 14.434 0 0 0 338.719 65.654 A 18.565 18.565 0 0 0 338.721 65.43 A 14.511 14.511 0 0 0 336.548 57.789 A 15.111 15.111 0 0 0 330.811 52.247 A 14.715 14.715 0 0 0 336.548 46.949 A 14.143 14.143 0 0 0 338.719 39.477 A 16.838 16.838 0 0 0 338.721 39.209 A 13.861 13.861 0 0 0 334.582 29.263 A 18.247 18.247 0 0 0 334.302 28.98 A 15.183 15.183 0 0 0 329.356 25.643 A 14.235 14.235 0 0 0 323.926 24.61 L 288.77 24.61 L 288.77 87.891 L 292.285 87.891 L 292.285 28.125 L 323.926 28.125 Q 328.418 28.125 331.812 31.47 A 11.857 11.857 0 0 1 334.161 34.657 A 10.142 10.142 0 0 1 335.205 39.209 A 11.723 11.723 0 0 1 334.523 43.279 A 10.313 10.313 0 0 1 331.885 47.242 A 11.158 11.158 0 0 1 323.926 50.391 L 313.184 50.391 L 301.709 50.391 L 301.709 53.907 L 313.184 53.907 L 323.926 53.907 A 10.552 10.552 0 0 1 331.275 56.853 A 14.082 14.082 0 0 1 331.812 57.373 A 12.063 12.063 0 0 1 334.33 61.058 A 10.977 10.977 0 0 1 335.205 65.43 A 12.691 12.691 0 0 1 334.614 69.385 A 10.532 10.532 0 0 1 331.885 73.731 A 11.023 11.023 0 0 1 323.926 76.954 Z M 323.926 43.36 L 301.709 43.36 L 301.709 46.875 L 323.926 46.875 A 8.519 8.519 0 0 0 326.898 46.373 A 7.607 7.607 0 0 0 329.443 44.8 A 6.867 6.867 0 0 0 331.595 40.591 A 9.752 9.752 0 0 0 331.689 39.209 A 6.997 6.997 0 0 0 329.895 34.52 A 9.464 9.464 0 0 0 329.346 33.936 A 8.221 8.221 0 0 0 326.945 32.27 A 7.327 7.327 0 0 0 323.926 31.641 L 295.801 31.641 L 295.801 87.891 L 299.316 87.891 L 299.316 35.157 L 323.926 35.157 A 4.082 4.082 0 0 1 326.665 36.206 A 5.382 5.382 0 0 1 326.88 36.402 A 4.637 4.637 0 0 1 327.692 37.42 A 3.522 3.522 0 0 1 328.174 39.209 A 5.244 5.244 0 0 1 328.033 40.463 A 3.462 3.462 0 0 1 326.953 42.286 A 4.28 4.28 0 0 1 324.476 43.334 A 5.648 5.648 0 0 1 323.926 43.36 Z M 323.926 69.922 L 301.709 69.922 L 301.709 73.438 L 323.926 73.438 A 7.656 7.656 0 0 0 329.419 71.265 A 7.225 7.225 0 0 0 331.565 67.065 A 10.304 10.304 0 0 0 331.689 65.43 A 7.751 7.751 0 0 0 329.494 59.996 A 10.103 10.103 0 0 0 329.346 59.839 A 8.372 8.372 0 0 0 327.196 58.208 A 7.001 7.001 0 0 0 323.926 57.422 L 301.66 57.422 L 301.66 60.938 L 323.926 60.938 A 3.8 3.8 0 0 1 326.403 61.858 A 5.307 5.307 0 0 1 326.88 62.305 A 4.833 4.833 0 0 1 327.827 63.715 A 4.291 4.291 0 0 1 328.174 65.43 A 6.066 6.066 0 0 1 328.036 66.763 Q 327.83 67.679 327.314 68.348 A 3.623 3.623 0 0 1 326.953 68.75 A 4.166 4.166 0 0 1 324.101 69.92 A 5.441 5.441 0 0 1 323.926 69.922 Z" stroke-linecap="round"/>
</g>
		<g transform="matrix(1 0 0 1 87.8907 -0.0007)" id="5">
<path style="stroke: rgb(0,0,0); stroke-width: 0.9449; stroke-dasharray: none; stroke-linecap: round; stroke-dashoffset: 0; stroke-linejoin: miter; stroke-miterlimit: 4; is-custom-font: none; font-file-url: none; fill: none; fill-rule: evenodd; opacity: 1;" transform=" translate(-403.0278, -47.4363)" d="M 416.064 90.625 L 416.455 94.141 Q 408.936 94.873 399.121 94.873 Q 389.453 94.873 380.762 91.236 A 47.38 47.38 0 0 1 368.672 83.987 A 43.834 43.834 0 0 1 365.82 81.397 A 45.59 45.59 0 0 1 356.376 67.645 A 52.083 52.083 0 0 1 355.908 66.578 A 46.149 46.149 0 0 1 352.246 48.34 Q 352.246 38.672 356.177 29.786 A 49.158 49.158 0 0 1 366.797 14.356 Q 373.486 7.813 382.837 3.907 A 50.601 50.601 0 0 1 402.539 0 A 52.815 52.815 0 0 1 415.894 1.709 A 55.274 55.274 0 0 1 427.347 6.049 A 51.36 51.36 0 0 1 428.101 6.446 A 52.674 52.674 0 0 1 438.525 13.794 Q 443.311 18.116 446.655 23.194 Q 450 28.272 451.904 34.229 A 39.697 39.697 0 0 1 453.809 46.387 L 453.809 56.983 A 25.619 25.619 0 0 1 452.898 63.991 A 19.277 19.277 0 0 1 447.778 72.657 A 20.477 20.477 0 0 1 434.262 78.513 A 27.214 27.214 0 0 1 432.568 78.565 Q 423.193 78.565 416.968 72.925 A 18.652 18.652 0 0 1 410.852 60.372 A 25.889 25.889 0 0 1 410.742 57.959 L 410.742 46.143 A 2.857 2.857 0 0 0 409.571 43.81 A 5.128 5.128 0 0 0 408.594 43.213 Q 407.054 42.478 404.736 42.27 A 21.878 21.878 0 0 0 402.783 42.188 A 7.197 7.197 0 0 0 398.094 43.918 A 9.299 9.299 0 0 0 397.778 44.19 A 8.043 8.043 0 0 0 396.536 45.579 Q 395.557 46.996 395.557 48.584 A 7.06 7.06 0 0 0 395.87 50.737 A 5.679 5.679 0 0 0 397.461 53.223 A 6.465 6.465 0 0 0 402.002 54.981 L 408.594 54.883 L 408.594 58.008 A 561.255 561.255 0 0 1 406.161 58.038 Q 405.201 58.048 404.333 58.052 A 300.767 300.767 0 0 1 402.686 58.057 A 12.558 12.558 0 0 1 398.608 57.416 A 10.972 10.972 0 0 1 395.166 55.494 Q 392.041 52.93 392.041 48.584 Q 392.041 44.629 395.166 41.651 A 10.63 10.63 0 0 1 402.783 38.672 A 20.9 20.9 0 0 1 406.19 38.934 Q 409.011 39.401 411.06 40.699 Q 414.258 42.725 414.258 46.143 L 414.258 57.959 A 19.176 19.176 0 0 0 415.02 63.502 A 14.8 14.8 0 0 0 419.458 70.435 A 18.127 18.127 0 0 0 429.352 74.844 A 24.454 24.454 0 0 0 432.568 75.049 A 20.205 20.205 0 0 0 438.624 74.18 A 16.436 16.436 0 0 0 445.313 70.166 A 16.232 16.232 0 0 0 449.899 61.382 A 23.45 23.45 0 0 0 450.293 56.983 L 450.293 46.387 A 38.257 38.257 0 0 0 446.582 29.908 A 43.189 43.189 0 0 0 436.523 16.236 A 46.574 46.574 0 0 0 425.574 8.861 A 55.718 55.718 0 0 0 421.289 6.983 A 51.131 51.131 0 0 0 402.539 3.516 Q 393.213 3.516 384.619 7.032 A 49.454 49.454 0 0 0 372.137 14.34 A 45.845 45.845 0 0 0 369.678 16.48 A 44.298 44.298 0 0 0 359.665 30.502 A 50.27 50.27 0 0 0 359.546 30.762 A 42.102 42.102 0 0 0 355.762 48.34 Q 355.762 56.788 359.277 64.722 A 44.867 44.867 0 0 0 368.652 78.492 A 45.009 45.009 0 0 0 382.021 87.62 A 50.928 50.928 0 0 0 382.52 87.842 Q 390.527 91.358 399.121 91.358 A 191.65 191.65 0 0 0 408.327 91.126 A 243.123 243.123 0 0 0 416.064 90.625 Z M 415.234 83.692 L 415.527 87.159 A 116.893 116.893 0 0 1 410.126 87.575 Q 407.112 87.742 403.681 87.805 A 234.175 234.175 0 0 1 399.414 87.842 A 38.533 38.533 0 0 1 384.033 84.693 A 40.21 40.21 0 0 1 372.941 77.675 A 37.921 37.921 0 0 1 371.411 76.221 A 39.199 39.199 0 0 1 363.594 64.851 A 45.185 45.185 0 0 1 362.988 63.477 Q 359.863 56.055 359.863 47.852 A 38.195 38.195 0 0 1 363.257 32.007 A 40.814 40.814 0 0 1 372.412 18.995 A 42.844 42.844 0 0 1 383.938 11.236 A 49.748 49.748 0 0 1 386.133 10.279 A 43.786 43.786 0 0 1 402.832 7.032 A 46.73 46.73 0 0 1 424.731 12.305 A 42.05 42.05 0 0 1 440.82 26.661 Q 446.777 35.743 446.777 46.387 L 446.777 56.983 A 16.484 16.484 0 0 1 446.144 61.665 A 12.743 12.743 0 0 1 442.627 67.408 A 14.219 14.219 0 0 1 432.988 71.328 A 18.505 18.505 0 0 1 432.373 71.338 A 17.058 17.058 0 0 1 427.037 70.534 A 14.443 14.443 0 0 1 421.875 67.554 A 12.485 12.485 0 0 1 417.693 59.007 A 17.37 17.37 0 0 1 417.627 57.471 L 417.627 46.143 A 10.557 10.557 0 0 0 416.997 42.419 Q 416.046 39.875 413.657 38.148 A 11.686 11.686 0 0 0 413.501 38.038 A 14.933 14.933 0 0 0 408.752 35.888 Q 406.008 35.157 402.588 35.157 Q 396.875 35.157 392.7 39.039 Q 388.525 42.92 388.525 48.584 A 13.984 13.984 0 0 0 389.099 52.692 A 10.809 10.809 0 0 0 392.603 57.935 Q 396.68 61.329 403.271 61.329 L 408.594 61.182 L 408.594 64.356 A 331.512 331.512 0 0 1 402.979 64.405 A 23.021 23.021 0 0 1 396.708 63.587 A 18.364 18.364 0 0 1 390.21 60.279 A 13.434 13.434 0 0 1 385.164 51.086 A 19.669 19.669 0 0 1 385.01 48.584 Q 385.01 41.602 390.039 36.622 A 17.004 17.004 0 0 1 402.004 31.649 A 22.275 22.275 0 0 1 402.588 31.641 A 29.835 29.835 0 0 1 408.17 32.133 Q 412.771 33.01 416.04 35.45 A 12.253 12.253 0 0 1 421.058 44.419 A 17.089 17.089 0 0 1 421.143 46.143 L 421.143 57.959 A 10.586 10.586 0 0 0 421.611 61.187 A 8.399 8.399 0 0 0 424.341 65.186 Q 427.539 67.823 432.373 67.823 A 12.425 12.425 0 0 0 436.233 67.247 A 10.371 10.371 0 0 0 440.161 64.917 A 9.582 9.582 0 0 0 443.043 59.505 A 13.896 13.896 0 0 0 443.262 56.983 L 443.262 46.387 A 31.887 31.887 0 0 0 440.088 32.471 A 35.754 35.754 0 0 0 431.494 21.021 A 39.717 39.717 0 0 0 421.814 14.739 A 47.278 47.278 0 0 0 418.579 13.379 A 44.178 44.178 0 0 0 402.832 10.547 Q 394.873 10.547 387.598 13.501 Q 380.322 16.455 375 21.412 A 36.891 36.891 0 0 0 366.528 33.301 A 34.79 34.79 0 0 0 363.379 47.852 Q 363.379 57.618 368.237 66.016 A 36.651 36.651 0 0 0 381.421 79.371 Q 389.746 84.327 399.414 84.327 A 196.856 196.856 0 0 0 410.479 84.027 A 167.409 167.409 0 0 0 415.234 83.692 Z M 414.453 76.807 L 414.746 80.225 A 162.696 162.696 0 0 1 405.392 80.771 A 195.755 195.755 0 0 1 399.414 80.86 Q 392.773 80.86 386.768 78.272 A 32.858 32.858 0 0 1 376.944 71.832 A 31.511 31.511 0 0 1 376.392 71.289 Q 372.021 66.895 369.458 60.767 Q 366.895 54.639 366.895 47.852 Q 366.895 40.918 369.727 34.668 Q 372.559 28.418 377.368 23.902 A 35.352 35.352 0 0 1 386.78 17.612 A 41.326 41.326 0 0 1 388.843 16.724 Q 395.508 14.063 402.832 14.063 A 40.076 40.076 0 0 1 417.065 16.626 A 40.341 40.341 0 0 1 425.119 20.69 A 34.93 34.93 0 0 1 428.833 23.511 A 33.097 33.097 0 0 1 436.768 33.814 A 27.849 27.849 0 0 1 439.746 46.387 L 439.746 56.983 A 9.177 9.177 0 0 1 439.487 59.23 A 6.242 6.242 0 0 1 437.646 62.378 A 7.257 7.257 0 0 1 433.339 64.26 A 9.678 9.678 0 0 1 432.373 64.307 A 10.794 10.794 0 0 1 429.861 64.029 A 7.886 7.886 0 0 1 426.855 62.622 A 5.417 5.417 0 0 1 424.693 58.684 A 7.463 7.463 0 0 1 424.658 57.959 L 424.658 46.143 Q 424.658 37.793 418.481 32.959 A 22.031 22.031 0 0 0 409.639 28.863 Q 406.434 28.137 402.706 28.126 A 38.951 38.951 0 0 0 402.588 28.125 Q 398.145 28.125 394.189 29.761 A 21.116 21.116 0 0 0 389.415 32.477 A 18.751 18.751 0 0 0 387.476 34.18 Q 384.717 36.963 383.105 40.723 A 19.754 19.754 0 0 0 381.494 48.584 Q 381.494 57.08 387.451 62.427 A 20.722 20.722 0 0 0 399.154 67.585 A 27.84 27.84 0 0 0 402.441 67.774 L 408.594 67.627 L 408.594 70.85 A 140.871 140.871 0 0 1 403.897 70.987 A 124.894 124.894 0 0 1 402.393 70.997 A 27.947 27.947 0 0 1 393.035 69.451 A 26.196 26.196 0 0 1 390.405 68.36 A 22.116 22.116 0 0 1 381.445 60.523 A 20.732 20.732 0 0 1 378.009 49.834 A 25.388 25.388 0 0 1 377.979 48.584 A 24.037 24.037 0 0 1 379.97 38.71 A 23.248 23.248 0 0 1 385.034 31.519 A 23.936 23.936 0 0 1 401.773 24.62 A 31.301 31.301 0 0 1 402.588 24.61 A 35.503 35.503 0 0 1 409.923 25.337 A 28.502 28.502 0 0 1 415.698 27.198 A 21.958 21.958 0 0 1 422.371 31.733 A 20.613 20.613 0 0 1 424.829 34.717 A 19.47 19.47 0 0 1 428.122 44.544 A 24.142 24.142 0 0 1 428.174 46.143 L 428.174 57.959 A 2.267 2.267 0 0 0 428.979 59.744 A 3.161 3.161 0 0 0 429.37 60.035 A 4.671 4.671 0 0 0 430.849 60.633 Q 431.46 60.772 432.169 60.789 A 8.38 8.38 0 0 0 432.373 60.791 A 4.416 4.416 0 0 0 433.74 60.588 A 3.678 3.678 0 0 0 435.132 59.766 A 3.391 3.391 0 0 0 436.168 57.779 A 4.878 4.878 0 0 0 436.23 56.983 L 436.23 46.387 A 25.434 25.434 0 0 0 431.787 31.91 A 30.556 30.556 0 0 0 421.297 22.313 A 36.603 36.603 0 0 0 419.653 21.436 A 36.787 36.787 0 0 0 403.685 17.587 A 42.758 42.758 0 0 0 402.832 17.579 A 33.479 33.479 0 0 0 386.646 21.607 A 31.348 31.348 0 0 0 374.805 32.618 Q 370.41 39.6 370.41 47.852 A 28.559 28.559 0 0 0 372.729 59.156 A 30.834 30.834 0 0 0 377.742 67.284 A 28.86 28.86 0 0 0 378.931 68.58 A 29.37 29.37 0 0 0 387.706 74.724 A 33.459 33.459 0 0 0 388.208 74.952 Q 393.604 77.344 399.414 77.344 A 313.704 313.704 0 0 0 404.163 77.311 Q 408.956 77.238 412.198 77.007 A 59.262 59.262 0 0 0 414.453 76.807 Z" stroke-linecap="round"/>
</g>
		<g transform="matrix(1 0 0 1 186.8158 1.7831)" id="6">
<path style="stroke: rgb(0,0,0); stroke-width: 0.9449; stroke-dasharray: none; stroke-linecap: round; stroke-dashoffset: 0; stroke-linejoin: miter; stroke-miterlimit: 4; is-custom-font: none; font-file-url: none; fill: none; fill-rule: evenodd; opacity: 1;" transform=" translate(-501.9528, -49.2201)" d="M 539.453 52.344 L 539.453 7.032 L 542.969 7.032 L 542.969 52.344 Q 542.969 62.891 537.451 71.9 A 39.996 39.996 0 0 1 522.485 86.158 A 41.584 41.584 0 0 1 501.953 91.407 A 41.584 41.584 0 0 1 481.421 86.158 A 39.996 39.996 0 0 1 466.455 71.9 A 36.756 36.756 0 0 1 460.937 52.344 L 460.938 7.032 L 464.453 7.032 L 464.453 52.344 A 33.076 33.076 0 0 0 467.432 66.114 A 35.67 35.67 0 0 0 475.439 77.466 A 37.363 37.363 0 0 0 485.299 84.127 A 43.489 43.489 0 0 0 487.427 85.059 A 38.172 38.172 0 0 0 501.953 87.891 A 38.172 38.172 0 0 0 516.479 85.059 A 39.503 39.503 0 0 0 525.485 79.992 A 35.528 35.528 0 0 0 528.467 77.466 A 35.67 35.67 0 0 0 536.475 66.114 A 33.076 33.076 0 0 0 539.453 52.344 Z M 532.422 52.344 L 532.422 7.032 L 535.938 7.032 L 535.938 52.344 A 29.574 29.574 0 0 1 533.228 64.771 A 32.521 32.521 0 0 1 525.977 75 A 33.447 33.447 0 0 1 517.062 81 A 39.033 39.033 0 0 1 515.137 81.836 A 34.935 34.935 0 0 1 501.953 84.375 A 34.935 34.935 0 0 1 488.77 81.836 A 35.437 35.437 0 0 1 480.702 77.338 A 31.788 31.788 0 0 1 477.93 75 Q 473.389 70.704 470.679 64.771 A 29.574 29.574 0 0 1 467.969 52.344 L 467.969 7.032 L 471.484 7.032 L 471.484 52.344 A 26.455 26.455 0 0 0 475.586 66.626 A 29.574 29.574 0 0 0 486.694 77.027 Q 493.701 80.86 501.953 80.86 Q 510.205 80.86 517.212 77.027 Q 524.219 73.194 528.32 66.626 A 26.455 26.455 0 0 0 532.422 52.344 Z M 525.391 52.344 L 525.391 7.032 L 528.906 7.032 L 528.906 52.344 A 22.696 22.696 0 0 1 526.758 62.037 Q 524.609 66.651 520.996 70.02 A 26.576 26.576 0 0 1 513.925 74.715 A 30.935 30.935 0 0 1 512.402 75.367 A 28.057 28.057 0 0 1 501.953 77.344 Q 496.484 77.344 491.504 75.367 A 28.096 28.096 0 0 1 485.051 71.805 A 25.275 25.275 0 0 1 482.91 70.02 Q 479.297 66.651 477.148 62.037 A 22.696 22.696 0 0 1 475 52.344 L 475 7.032 L 478.516 7.032 L 478.516 52.344 A 19.692 19.692 0 0 0 481.665 63.111 A 22.434 22.434 0 0 0 490.21 70.948 Q 495.605 73.829 501.953 73.829 Q 508.301 73.829 513.696 70.948 A 22.434 22.434 0 0 0 522.241 63.111 A 19.692 19.692 0 0 0 525.391 52.344 Z M 518.359 52.344 L 518.359 7.032 L 521.875 7.032 L 521.875 52.344 A 16.31 16.31 0 0 1 516.725 64.372 A 21.774 21.774 0 0 1 516.016 65.039 Q 510.156 70.313 501.953 70.313 Q 493.75 70.313 487.891 65.039 A 18.346 18.346 0 0 1 483.885 60.014 A 16.111 16.111 0 0 1 482.031 52.344 L 482.031 7.032 L 485.547 7.032 L 485.547 52.344 A 12.978 12.978 0 0 0 489.704 61.943 A 17.724 17.724 0 0 0 490.356 62.549 A 16.834 16.834 0 0 0 501.531 66.793 A 21.397 21.397 0 0 0 501.953 66.797 A 18.017 18.017 0 0 0 508.606 65.598 A 16.622 16.622 0 0 0 513.55 62.549 A 14.946 14.946 0 0 0 516.752 58.661 A 12.715 12.715 0 0 0 518.359 52.344 Z" stroke-linecap="round"/>
</g>
		<g transform="matrix(1 0 0 1 275.9763 0.0248)" id="7">
<path style="stroke: rgb(0,0,0); stroke-width: 0.9449; stroke-dasharray: none; stroke-linecap: round; stroke-dashoffset: 0; stroke-linejoin: miter; stroke-miterlimit: 4; is-custom-font: none; font-file-url: none; fill: none; fill-rule: evenodd; opacity: 1;" transform=" translate(-591.1132, -47.4618)" d="M 601.172 10.547 L 555.469 10.547 L 555.469 87.891 L 551.953 87.891 L 551.953 7.032 L 601.172 7.032 Q 608.887 7.032 615.601 10.84 A 29.191 29.191 0 0 1 626.294 21.167 Q 630.273 27.686 630.273 35.205 Q 630.273 42.383 626.221 47.803 A 23.361 23.361 0 0 1 628.919 52.576 A 17.361 17.361 0 0 1 630.273 59.229 A 31.837 31.837 0 0 1 629.358 66.978 A 27.692 27.692 0 0 1 627.93 71.216 A 27.392 27.392 0 0 1 624.361 77.306 A 23.887 23.887 0 0 1 621.606 80.274 Q 617.627 83.887 612.354 85.889 A 31.237 31.237 0 0 1 601.172 87.891 L 578.516 87.891 L 578.516 84.375 L 601.172 84.375 A 25.546 25.546 0 0 0 610.986 82.447 A 26.02 26.02 0 0 0 618.703 77.607 A 24.887 24.887 0 0 0 619.141 77.198 A 24.679 24.679 0 0 0 624.35 69.914 A 28.344 28.344 0 0 0 624.683 69.19 A 24.331 24.331 0 0 0 626.758 59.229 Q 626.758 57.526 626.178 55.321 A 28.023 28.023 0 0 0 625.659 53.589 A 17.504 17.504 0 0 0 622.412 47.754 Q 626.758 41.944 626.758 35.205 Q 626.758 28.614 623.267 22.925 Q 619.775 17.237 613.867 13.892 A 25.352 25.352 0 0 0 601.172 10.547 Z M 601.172 80.86 L 578.516 80.86 L 578.516 77.344 L 601.172 77.344 A 18.514 18.514 0 0 0 614.258 72.242 A 16.882 16.882 0 0 0 619.715 59.964 A 22.327 22.327 0 0 0 619.727 59.229 A 13.186 13.186 0 0 0 619.41 56.44 Q 619.051 54.783 618.286 52.955 A 14.154 14.154 0 0 0 616.815 50.256 A 10.549 10.549 0 0 0 614.307 47.705 A 16.399 16.399 0 0 0 619.715 35.896 A 19.888 19.888 0 0 0 619.727 35.205 A 16.284 16.284 0 0 0 614.834 23.491 A 21.835 21.835 0 0 0 614.16 22.828 A 18.336 18.336 0 0 0 601.172 17.579 L 562.5 17.579 L 562.5 87.891 L 558.984 87.891 L 558.984 14.063 L 601.172 14.063 A 21.99 21.99 0 0 1 612.085 16.919 Q 617.188 19.776 620.215 24.683 A 19.692 19.692 0 0 1 623.242 35.205 A 18.082 18.082 0 0 1 619.011 46.842 A 23.223 23.223 0 0 1 618.408 47.559 A 20.299 20.299 0 0 1 621.605 52.211 A 15.793 15.793 0 0 1 623.242 59.229 Q 623.242 65.332 620.19 70.337 A 21.323 21.323 0 0 1 612.085 78.101 A 22.417 22.417 0 0 1 601.172 80.86 Z M 578.516 49.805 L 578.516 46.289 L 601.172 46.289 A 13.321 13.321 0 0 0 605.473 45.619 A 11.487 11.487 0 0 0 609.351 43.384 A 9.463 9.463 0 0 0 612.459 37.84 A 14.015 14.015 0 0 0 612.695 35.205 A 9.445 9.445 0 0 0 610.117 28.698 A 13.07 13.07 0 0 0 609.204 27.784 A 11.59 11.59 0 0 0 601.172 24.61 L 569.531 24.61 L 569.531 87.891 L 566.016 87.891 L 566.016 21.094 L 601.172 21.094 Q 607.178 21.094 611.694 25.318 A 15.04 15.04 0 0 1 614.701 29.138 A 12.56 12.56 0 0 1 616.211 35.205 A 16.068 16.068 0 0 1 615.692 39.368 A 13.168 13.168 0 0 1 614.136 42.969 Q 612.061 46.289 608.545 48.096 A 12.734 12.734 0 0 1 612.588 50.358 Q 616.211 53.455 616.211 59.229 A 16.256 16.256 0 0 1 615.54 64.011 A 12.81 12.81 0 0 1 611.816 69.849 A 15.259 15.259 0 0 1 601.367 73.828 A 19.496 19.496 0 0 1 601.172 73.829 L 578.516 73.829 L 578.516 70.313 L 601.172 70.313 A 13.321 13.321 0 0 0 605.473 69.642 A 11.487 11.487 0 0 0 609.351 67.408 A 9.463 9.463 0 0 0 612.459 61.863 A 14.015 14.015 0 0 0 612.695 59.229 A 8.984 8.984 0 0 0 610.156 52.93 Q 607.617 50.196 602.686 49.756 A 6.882 6.882 0 0 1 602.408 49.778 Q 601.941 49.805 601.172 49.805 L 578.516 49.805 Z M 576.563 31.641 L 576.563 87.891 L 573.047 87.891 L 573.047 28.125 L 601.172 28.125 A 9.04 9.04 0 0 1 604.314 28.656 A 8.11 8.11 0 0 1 606.836 30.152 A 6.814 6.814 0 0 1 608.552 32.34 A 6.497 6.497 0 0 1 609.18 35.205 A 11.489 11.489 0 0 1 608.996 37.335 Q 608.545 39.725 606.982 40.992 A 7.649 7.649 0 0 1 603.969 42.457 Q 602.696 42.774 601.172 42.774 L 578.516 42.774 L 578.516 39.258 L 601.172 39.258 A 7.255 7.255 0 0 0 602.867 39.078 Q 605.137 38.53 605.565 36.321 A 5.875 5.875 0 0 0 605.664 35.205 A 3.478 3.478 0 0 0 605.455 33.973 A 3.049 3.049 0 0 0 604.395 32.593 A 4.627 4.627 0 0 0 602.567 31.781 A 6.618 6.618 0 0 0 601.172 31.641 L 576.563 31.641 Z M 601.172 56.543 L 578.516 56.543 L 578.516 53.028 L 601.172 53.028 A 14.008 14.008 0 0 1 604.144 53.314 Q 608.435 54.25 609.07 58.241 A 9.409 9.409 0 0 1 609.18 59.717 Q 609.18 62.21 608.214 63.78 A 4.911 4.911 0 0 1 606.982 65.137 Q 604.994 66.639 601.847 66.782 A 14.876 14.876 0 0 1 601.172 66.797 L 578.516 66.797 L 578.516 63.282 L 601.172 63.282 A 8.309 8.309 0 0 0 602.811 63.135 Q 605.664 62.558 605.664 59.717 Q 605.664 57.813 604.517 57.178 A 4.183 4.183 0 0 0 603.604 56.817 Q 602.688 56.564 601.385 56.545 A 14.686 14.686 0 0 0 601.172 56.543 Z" stroke-linecap="round"/>
</g>
</g>
</g>
</svg>